# xmcd CD database file
#
# Track frame offsets:
#	150
#	22596
#	39095
#	55938
#	75963
#	92006
#	110291
#	128590
#	143936
#	160211
#	181335
#	198025
#	216991
#	240459
#	262788
#	279290
#	297133
#	316481
#	338159
#
# Disc length: 4741 seconds
#
# Revision: 0
# Processed by: cddbd v1.5.2PL0 Copyright (c) Steve Scherf et al.
# Submitted via: CDex 1.70beta2
#
DISCID=ef128313
DTITLE=Amy  Winehouse - Back to Black [CD2)
DYEAR=2007
DGENRE=Blues
TTITLE0=All Good Things (Come to an End)
TTITLE1=Te Busque (feat. Juanes)
TTITLE2=Say It Right
TTITLE3=Maneater
TTITLE4=Afraid (feat. Attitude)
TTITLE5=Promiscuous (feat. Timbaland) ﾰﾮￅ﾿ - Promiscuous (feat. Timbaland) ﾰﾮￅ﾿
TTITLE6=Glow
TTITLE7=Showtime
TTITLE8=No Hay Igual
TTITLE9=Try (Radio Edit
TTITLE10=Do It
TTITLE11=In God's Hands
TTITLE12=Wait For You
TTITLE13=Somebody To Love
TTITLE14=Let My Hair Down
TTITLE15=Undercover
TTITLE16=Runaway
TTITLE17=One Trick Pony
TTITLE18=Powerless (Say What You Want)
EXTD=YEAR: 2007
EXTT0=
EXTT1=
EXTT2=
EXTT3=
EXTT4=
EXTT5=
EXTT6=
EXTT7=
EXTT8=
EXTT9=
EXTT10=
EXTT11=
EXTT12=
EXTT13=
EXTT14=
EXTT15=
EXTT16=
EXTT17=
EXTT18=
PLAYORDER=
